<svg xmlns="http://www.w3.org/2000/svg" viewBox="0 0 600 360" preserveAspectRatio="xMidYMid slice" role="img" aria-label="AI complaint analytics dashboard"><rect width="600" height="360" fill="#0d1b2a"/><rect x="24" y="24" width="552" height="312" rx="16" fill="#f7f6f2"/><rect x="44" y="44" width="200" height="272" rx="12" fill="#fff" stroke="#e3e5e7"/><rect x="60" y="60" width="168" height="12" rx="6" fill="#0d4974"/><rect x="60" y="84" width="120" height="8" rx="4" fill="#dfe3e5"/><rect x="60" y="108" width="168" height="36" rx="8" fill="#e8f3fb"/><rect x="76" y="120" width="140" height="10" rx="5" fill="#0d4974"/><rect x="60" y="156" width="168" height="36" rx="8" fill="#f4f5f6"/><rect x="76" y="168" width="120" height="10" rx="5" fill="#68747d"/><rect x="60" y="204" width="168" height="36" rx="8" fill="#f4f5f6"/><rect x="76" y="216" width="100" height="10" rx="5" fill="#68747d"/><rect x="60" y="252" width="168" height="48" rx="8" fill="#0d4974"/><rect x="76" y="266" width="80" height="10" rx="5" fill="#fff"/><rect x="76" y="282" width="120" height="8" rx="4" fill="#9fc6e3"/><rect x="264" y="44" width="292" height="156" rx="12" fill="#fff" stroke="#e3e5e7"/><rect x="284" y="64" width="140" height="12" rx="6" fill="#07121e"/><rect x="284" y="88" width="200" height="8" rx="4" fill="#dfe3e5"/><polyline points="284,170 320,150 356,158 392,130 428,140 464,108 500,118 536,92" fill="none" stroke="#0d4974" stroke-width="3" stroke-linecap="round" stroke-linejoin="round"/><circle cx="500" cy="118" r="4" fill="#ff5a00"/><circle cx="536" cy="92" r="4" fill="#ff5a00"/><rect x="264" y="216" width="140" height="100" rx="12" fill="#fff" stroke="#e3e5e7"/><rect x="280" y="232" width="80" height="8" rx="4" fill="#dfe3e5"/><rect x="280" y="252" width="50" height="40" rx="8" fill="#0d4974"/><rect x="420" y="216" width="136" height="100" rx="12" fill="#0d4974"/><rect x="436" y="232" width="60" height="8" rx="4" fill="#9fc6e3"/><rect x="436" y="252" width="90" height="36" rx="8" fill="#fff"/></svg>